<svg width="500" height="282" viewBox="0 0 500 282" fill="none" xmlns="http://www.w3.org/2000/svg">
<rect width="500" height="281.496" fill="#F2F2F2"/>
<circle opacity="0.5" cx="250" cy="169" r="111" fill="#D4DDD2"/>
<path fill-rule="evenodd" clip-rule="evenodd" d="M294.646 281.496H91.8098V172.96L115.5 142L294.646 281.496Z" fill="#F2F2F2"/>
<path fill-rule="evenodd" clip-rule="evenodd" d="M294.646 281.496H91.8098V172.96L115.5 142L294.646 281.496Z" fill="black" fill-opacity="0.2"/>
<path fill-rule="evenodd" clip-rule="evenodd" d="M478.446 281.496H235.496L147 218.5L170.81 219.852V101.96L194.5 71L478.446 281.496Z" fill="#F2F2F2"/>
<path fill-rule="evenodd" clip-rule="evenodd" d="M478.446 281.496H235.496L147 218.5L170.81 219.852V101.96L194.5 71L478.446 281.496Z" fill="black" fill-opacity="0.2"/>
<path fill-rule="evenodd" clip-rule="evenodd" d="M478.788 281.496H238.54L226.5 271L249.81 271.852V153.96L273.5 123L478.788 281.496Z" fill="#F2F2F2"/>
<path fill-rule="evenodd" clip-rule="evenodd" d="M478.788 281.496H238.54L226.5 271L249.81 271.852V153.96L273.5 123L478.788 281.496Z" fill="black" fill-opacity="0.14"/>
<path fill-rule="evenodd" clip-rule="evenodd" d="M472.98 281.496H328.81V219.96L352.5 189L472.98 281.496Z" fill="#F2F2F2"/>
<path fill-rule="evenodd" clip-rule="evenodd" d="M472.98 281.496H328.81V219.96L352.5 189L472.98 281.496Z" fill="black" fill-opacity="0.2"/>
<path fill-rule="evenodd" clip-rule="evenodd" d="M500 127.589V281.496H456.954L384 222.5L407.81 223.852V105.96L431.5 75L500 127.589Z" fill="#F2F2F2"/>
<path fill-rule="evenodd" clip-rule="evenodd" d="M500 127.589V281.496H456.954L384 222.5L407.81 223.852V105.96L431.5 75L500 127.589Z" fill="black" fill-opacity="0.2"/>
<path fill-rule="evenodd" clip-rule="evenodd" d="M117 281.496H67V145C67 142.791 68.7909 141 71 141H113C115.209 141 117 142.791 117 145V281.496Z" fill="#EEC2A8"/>
<rect x="146" y="70" width="50" height="150" rx="4" fill="#C89C9F"/>
<rect x="225" y="122" width="50" height="150" rx="4" fill="#EEC2A8"/>
<path fill-rule="evenodd" clip-rule="evenodd" d="M354 281.496H304V192C304 189.791 305.791 188 308 188H350C352.209 188 354 189.791 354 192V281.496Z" fill="#D4DDD2"/>
<rect x="383" y="74" width="50" height="150" rx="4" fill="#C89C9F"/>
<path d="M65.3008 28.6875V49H64.1582V28.6875H65.3008ZM69.3633 36.5332H70.5059V36.8252C71.2168 36.1396 72.0674 35.7969 73.0576 35.7969C74.0817 35.7969 74.9535 36.1566 75.6729 36.876C75.8675 37.0706 76.0368 37.2822 76.1807 37.5107C76.3245 37.2907 76.498 37.0791 76.7012 36.876C77.4206 36.1566 78.2923 35.7969 79.3164 35.7969C80.3405 35.7969 81.2122 36.1566 81.9316 36.876C82.6172 37.57 82.9769 38.4036 83.0107 39.377V49H81.8682V39.377H81.8809C81.847 38.7168 81.5973 38.154 81.1318 37.6885C80.624 37.1891 80.0189 36.9395 79.3164 36.9395C78.6139 36.9395 78.0088 37.1891 77.501 37.6885C77.0016 38.1878 76.752 38.8099 76.752 39.5547V49H75.6094V39.377H75.6221C75.5882 38.7168 75.3385 38.154 74.873 37.6885C74.3652 37.1891 73.7601 36.9395 73.0576 36.9395C72.3551 36.9395 71.7542 37.1891 71.2549 37.6885C70.8148 38.1201 70.5651 38.6491 70.5059 39.2754V49H69.3633V36.5332ZM100.289 49H99.1465V46.4609C98.9264 46.7572 98.6852 47.0407 98.4229 47.3115C97.0602 48.6742 95.4141 49.3555 93.4844 49.3555C91.5632 49.3555 89.9212 48.6742 88.5586 47.3115C87.196 45.9489 86.5146 44.307 86.5146 42.3857C86.5146 40.4561 87.196 38.8099 88.5586 37.4473C89.9212 36.0846 91.5632 35.4033 93.4844 35.4033C95.4141 35.4033 97.0602 36.0846 98.4229 37.4473C98.6852 37.7181 98.9264 38.0016 99.1465 38.2979V36.5332H100.289V49ZM99.1465 43.5156V41.2559C98.9349 40.1387 98.4059 39.1569 97.5596 38.3105C96.4339 37.1849 95.0755 36.6221 93.4844 36.6221C91.8932 36.6221 90.5348 37.1849 89.4092 38.3105C88.2835 39.4362 87.7207 40.7946 87.7207 42.3857C87.7207 43.9769 88.2835 45.3353 89.4092 46.4609C90.5348 47.5781 91.8932 48.1367 93.4844 48.1367C95.0755 48.1367 96.4339 47.5739 97.5596 46.4482C98.4059 45.6019 98.9349 44.6243 99.1465 43.5156ZM116.399 41.1924C116.179 40.1006 115.655 39.14 114.825 38.3105C113.7 37.1849 112.341 36.6221 110.75 36.6221C109.159 36.6221 107.8 37.1849 106.675 38.3105C105.549 39.4362 104.986 40.7946 104.986 42.3857C104.986 43.9769 105.549 45.3353 106.675 46.4609C107.8 47.5866 109.159 48.1494 110.75 48.1494C112.341 48.1494 113.7 47.5866 114.825 46.4609C115.646 45.64 116.171 44.6878 116.399 43.6045V41.1924ZM116.374 46.5244C116.162 46.7952 115.934 47.0576 115.688 47.3115C114.326 48.6742 112.68 49.3555 110.75 49.3555C108.829 49.3555 107.187 48.6742 105.824 47.3115C104.462 45.9489 103.78 44.307 103.78 42.3857C103.78 40.4561 104.462 38.8141 105.824 37.46C107.187 36.0973 108.829 35.416 110.75 35.416C112.68 35.416 114.326 36.0931 115.688 37.4473C115.951 37.7181 116.192 38.0016 116.412 38.2979V36.5332H117.555V46.2197C117.555 48.0902 116.89 49.6898 115.562 51.0186C114.199 52.3812 112.557 53.0625 110.636 53.0625C108.706 53.0625 107.06 52.3812 105.697 51.0186C105.418 50.7393 105.168 50.4473 104.948 50.1426L106.154 49.7109C106.281 49.8633 106.417 50.0114 106.561 50.1553C107.686 51.2809 109.045 51.8438 110.636 51.8438C112.218 51.8438 113.573 51.2809 114.698 50.1553C115.722 49.1312 116.281 47.9209 116.374 46.5244ZM123.788 46.6641C124.863 47.6458 126.141 48.1367 127.622 48.1367C129.213 48.1367 130.572 47.5739 131.697 46.4482C131.841 46.3044 131.977 46.1562 132.104 46.0039L133.31 46.4355C133.09 46.7402 132.84 47.0322 132.561 47.3115C131.198 48.6742 129.552 49.3555 127.622 49.3555C125.701 49.3555 124.059 48.6742 122.696 47.3115C121.334 45.9489 120.652 44.3027 120.652 42.373C120.652 40.4518 121.334 38.8099 122.696 37.4473C124.059 36.0846 125.701 35.4033 127.622 35.4033C129.272 35.4033 130.715 35.8984 131.951 36.8887C132.154 37.0579 132.357 37.2441 132.561 37.4473C132.637 37.5234 132.709 37.5996 132.776 37.6758L131.913 38.5391L123.788 46.6641ZM131.075 37.7646C130.085 37.0029 128.934 36.6221 127.622 36.6221C126.039 36.6221 124.685 37.1849 123.56 38.3105C122.434 39.4277 121.871 40.7819 121.871 42.373C121.871 43.6849 122.252 44.8359 123.014 45.8262L131.075 37.7646ZM158.814 49H157.672V46.4609C157.452 46.7572 157.211 47.0407 156.948 47.3115C155.586 48.6742 153.939 49.3555 152.01 49.3555C150.089 49.3555 148.447 48.6742 147.084 47.3115C145.721 45.9489 145.04 44.307 145.04 42.3857C145.04 40.4561 145.721 38.8099 147.084 37.4473C148.447 36.0846 150.089 35.4033 152.01 35.4033C153.939 35.4033 155.586 36.0846 156.948 37.4473C157.211 37.7181 157.452 38.0016 157.672 38.2979V28.6875H158.814V49ZM157.672 43.5156V41.2559C157.46 40.1387 156.931 39.1569 156.085 38.3105C154.959 37.1849 153.601 36.6221 152.01 36.6221C150.419 36.6221 149.06 37.1849 147.935 38.3105C146.809 39.4362 146.246 40.7946 146.246 42.3857C146.246 43.9769 146.809 45.3353 147.935 46.4609C149.06 47.5781 150.419 48.1367 152.01 48.1367C153.601 48.1367 154.959 47.5739 156.085 46.4482C156.931 45.6019 157.46 44.6243 157.672 43.5156ZM167.765 49.1777C166.207 49.1777 164.967 48.7165 164.045 47.7939C163.122 46.8714 162.648 45.7077 162.623 44.3027V36.5332H163.766V44.2012C163.766 45.2591 164.151 46.1605 164.921 46.9053C165.683 47.6585 166.626 48.0352 167.752 48.0352C168.801 48.0352 169.707 47.6628 170.469 46.918C171.239 46.1647 171.624 45.2591 171.624 44.2012V36.5332H172.767V44.3027C172.741 45.7077 172.267 46.8714 171.345 47.7939C170.422 48.7165 169.229 49.1777 167.765 49.1777ZM185.576 36.5332H186.719V38.2852C186.93 37.9974 187.172 37.7181 187.442 37.4473C188.805 36.0931 190.447 35.416 192.368 35.416C194.298 35.416 195.94 36.0973 197.294 37.46C198.657 38.8141 199.338 40.4561 199.338 42.3857C199.338 44.307 198.657 45.9489 197.294 47.3115C195.94 48.6742 194.298 49.3555 192.368 49.3555C190.447 49.3555 188.805 48.6742 187.442 47.3115C187.172 47.0407 186.93 46.7614 186.719 46.4736V53.7607H185.576V36.5332ZM186.719 41.1924V43.5791C186.939 44.6709 187.464 45.6315 188.293 46.4609C189.419 47.5866 190.777 48.1494 192.368 48.1494C193.959 48.1494 195.318 47.5866 196.443 46.4609C197.569 45.3353 198.132 43.9769 198.132 42.3857C198.132 40.7946 197.569 39.4362 196.443 38.3105C195.318 37.1849 193.959 36.6221 192.368 36.6221C190.777 36.6221 189.419 37.1849 188.293 38.3105C187.464 39.14 186.939 40.1006 186.719 41.1924ZM202.512 36.5332H203.654V38.8057C203.891 38.4671 204.166 38.1413 204.479 37.8281C205.487 36.821 206.519 36.292 207.577 36.2412V37.4854C206.858 37.5192 206.113 37.9212 205.343 38.6914C204.259 39.7663 203.697 41.057 203.654 42.5635V49H202.512V36.5332ZM216.083 35.4033C218.013 35.4033 219.655 36.0846 221.009 37.4473C222.371 38.8099 223.053 40.4561 223.053 42.3857C223.053 44.307 222.371 45.9489 221.009 47.3115C219.655 48.6742 218.013 49.3555 216.083 49.3555C214.162 49.3555 212.52 48.6742 211.157 47.3115C209.795 45.9489 209.113 44.307 209.113 42.3857C209.113 40.4561 209.795 38.8099 211.157 37.4473C212.52 36.0846 214.162 35.4033 216.083 35.4033ZM216.083 36.6221C214.492 36.6221 213.133 37.1849 212.008 38.3105C210.882 39.4362 210.319 40.7946 210.319 42.3857C210.319 43.9769 210.882 45.3353 212.008 46.4609C213.133 47.5781 214.492 48.1367 216.083 48.1367C217.674 48.1367 219.033 47.5781 220.158 46.4609C221.284 45.3353 221.847 43.9769 221.847 42.3857C221.847 40.7946 221.284 39.4362 220.158 38.3105C219.033 37.1849 217.674 36.6221 216.083 36.6221ZM224.817 50.752C225.841 50.6335 226.354 50.0579 226.354 49.0254V36.5332H227.496V49C227.496 50.7858 226.603 51.7507 224.817 51.8945V50.752ZM226.925 32.1152C227.238 32.1152 227.505 32.2253 227.725 32.4453C227.953 32.6654 228.067 32.932 228.067 33.2451C228.067 33.5667 227.953 33.8376 227.725 34.0576C227.505 34.2777 227.238 34.3877 226.925 34.3877C226.612 34.3877 226.341 34.2777 226.112 34.0576C225.892 33.8376 225.782 33.5667 225.782 33.2451C225.782 32.932 225.892 32.6654 226.112 32.4453C226.341 32.2253 226.612 32.1152 226.925 32.1152ZM234.263 46.6641C235.338 47.6458 236.616 48.1367 238.097 48.1367C239.688 48.1367 241.046 47.5739 242.172 46.4482C242.316 46.3044 242.451 46.1562 242.578 46.0039L243.784 46.4355C243.564 46.7402 243.314 47.0322 243.035 47.3115C241.673 48.6742 240.026 49.3555 238.097 49.3555C236.175 49.3555 234.534 48.6742 233.171 47.3115C231.808 45.9489 231.127 44.3027 231.127 42.373C231.127 40.4518 231.808 38.8099 233.171 37.4473C234.534 36.0846 236.175 35.4033 238.097 35.4033C239.747 35.4033 241.19 35.8984 242.426 36.8887C242.629 37.0579 242.832 37.2441 243.035 37.4473C243.111 37.5234 243.183 37.5996 243.251 37.6758L242.388 38.5391L234.263 46.6641ZM241.55 37.7646C240.56 37.0029 239.409 36.6221 238.097 36.6221C236.514 36.6221 235.16 37.1849 234.034 38.3105C232.909 39.4277 232.346 40.7819 232.346 42.373C232.346 43.6849 232.727 44.8359 233.488 45.8262L241.55 37.7646ZM248.621 36.5332V31.2266H249.764V36.5332H252.303V37.6758H249.764V49H248.621V37.6758H246.082V36.5332H248.621ZM265.48 39.3135V49H264.338V36.5332H265.48V37.333C266.521 36.3005 267.732 35.7842 269.111 35.7842C270.584 35.7842 271.782 36.2454 272.704 37.168C273.627 38.0905 274.101 39.2542 274.126 40.6592V49H272.983V40.7607C272.983 39.7028 272.598 38.8014 271.828 38.0566C271.066 37.3034 270.161 36.9268 269.111 36.9268C268.062 36.9268 267.156 37.2949 266.395 38.0312C265.98 38.446 265.675 38.8734 265.48 39.3135ZM284.155 35.4033C286.085 35.4033 287.727 36.0846 289.081 37.4473C290.444 38.8099 291.125 40.4561 291.125 42.3857C291.125 44.307 290.444 45.9489 289.081 47.3115C287.727 48.6742 286.085 49.3555 284.155 49.3555C282.234 49.3555 280.592 48.6742 279.229 47.3115C277.867 45.9489 277.186 44.307 277.186 42.3857C277.186 40.4561 277.867 38.8099 279.229 37.4473C280.592 36.0846 282.234 35.4033 284.155 35.4033ZM284.155 36.6221C282.564 36.6221 281.206 37.1849 280.08 38.3105C278.954 39.4362 278.392 40.7946 278.392 42.3857C278.392 43.9769 278.954 45.3353 280.08 46.4609C281.206 47.5781 282.564 48.1367 284.155 48.1367C285.746 48.1367 287.105 47.5781 288.23 46.4609C289.356 45.3353 289.919 43.9769 289.919 42.3857C289.919 40.7946 289.356 39.4362 288.23 38.3105C287.105 37.1849 285.746 36.6221 284.155 36.6221ZM295.314 39.3135V49H294.172V36.5332H295.314V37.333C296.355 36.3005 297.566 35.7842 298.945 35.7842C300.418 35.7842 301.616 36.2454 302.538 37.168C303.461 38.0905 303.935 39.2542 303.96 40.6592V49H302.817V40.7607C302.817 39.7028 302.432 38.8014 301.662 38.0566C300.9 37.3034 299.995 36.9268 298.945 36.9268C297.896 36.9268 296.99 37.2949 296.229 38.0312C295.814 38.446 295.509 38.8734 295.314 39.3135ZM330.227 49H329.084V46.4609C328.864 46.7572 328.623 47.0407 328.36 47.3115C326.998 48.6742 325.352 49.3555 323.422 49.3555C321.501 49.3555 319.859 48.6742 318.496 47.3115C317.133 45.9489 316.452 44.307 316.452 42.3857C316.452 40.4561 317.133 38.8099 318.496 37.4473C319.859 36.0846 321.501 35.4033 323.422 35.4033C325.352 35.4033 326.998 36.0846 328.36 37.4473C328.623 37.7181 328.864 38.0016 329.084 38.2979V28.6875H330.227V49ZM329.084 43.5156V41.2559C328.872 40.1387 328.343 39.1569 327.497 38.3105C326.371 37.1849 325.013 36.6221 323.422 36.6221C321.831 36.6221 320.472 37.1849 319.347 38.3105C318.221 39.4362 317.658 40.7946 317.658 42.3857C317.658 43.9769 318.221 45.3353 319.347 46.4609C320.472 47.5781 321.831 48.1367 323.422 48.1367C325.013 48.1367 326.371 47.5739 327.497 46.4482C328.343 45.6019 328.872 44.6243 329.084 43.5156ZM335.432 36.5332V49H334.289V36.5332H335.432ZM334.86 32.1152C335.174 32.1152 335.44 32.2253 335.66 32.4453C335.889 32.6654 336.003 32.932 336.003 33.2451C336.003 33.5667 335.889 33.8376 335.66 34.0576C335.44 34.2777 335.174 34.3877 334.86 34.3877C334.547 34.3877 334.276 34.2777 334.048 34.0576C333.828 33.8376 333.718 33.5667 333.718 33.2451C333.718 32.932 333.828 32.6654 334.048 32.4453C334.276 32.2253 334.547 32.1152 334.86 32.1152ZM342.922 42.5889C341.949 42.0641 341.276 41.6156 340.903 41.2432C340.319 40.6592 340.027 39.9567 340.027 39.1357C340.027 38.3063 340.319 37.5996 340.903 37.0156C341.487 36.4232 342.19 36.127 343.011 36.127C343.84 36.127 344.526 36.3978 345.067 36.9395C345.592 37.4727 345.854 38.0778 345.854 38.7549V38.8184L344.864 39.2119C344.78 38.5687 344.576 38.0863 344.255 37.7646C343.942 37.443 343.527 37.2822 343.011 37.2822C342.503 37.2822 342.067 37.4642 341.703 37.8281C341.339 38.1836 341.157 38.6195 341.157 39.1357C341.157 39.6436 341.339 40.0794 341.703 40.4434C341.915 40.6549 342.363 40.9766 343.049 41.4082C344.132 42.0007 344.902 42.5254 345.359 42.9824C346.079 43.7103 346.438 44.5778 346.438 45.585C346.438 46.6175 346.079 47.4977 345.359 48.2256C344.64 48.945 343.768 49.3047 342.744 49.3047C341.72 49.3047 340.848 48.945 340.129 48.2256C339.41 47.4977 339.05 46.7021 339.05 45.8389L340.18 45.5469C340.18 46.2917 340.429 46.9137 340.929 47.4131C341.437 47.9124 342.042 48.1621 342.744 48.1621C343.447 48.1621 344.048 47.9124 344.547 47.4131C345.055 46.9137 345.309 46.3044 345.309 45.585C345.309 44.8825 345.059 44.2816 344.56 43.7822C344.289 43.5114 343.743 43.1136 342.922 42.5889ZM349.676 36.5332H350.818V38.2852C351.03 37.9974 351.271 37.7181 351.542 37.4473C352.905 36.0931 354.547 35.416 356.468 35.416C358.397 35.416 360.039 36.0973 361.394 37.46C362.756 38.8141 363.438 40.4561 363.438 42.3857C363.438 44.307 362.756 45.9489 361.394 47.3115C360.039 48.6742 358.397 49.3555 356.468 49.3555C354.547 49.3555 352.905 48.6742 351.542 47.3115C351.271 47.0407 351.03 46.7614 350.818 46.4736V53.7607H349.676V36.5332ZM350.818 41.1924V43.5791C351.038 44.6709 351.563 45.6315 352.393 46.4609C353.518 47.5866 354.877 48.1494 356.468 48.1494C358.059 48.1494 359.417 47.5866 360.543 46.4609C361.669 45.3353 362.231 43.9769 362.231 42.3857C362.231 40.7946 361.669 39.4362 360.543 38.3105C359.417 37.1849 358.059 36.6221 356.468 36.6221C354.877 36.6221 353.518 37.1849 352.393 38.3105C351.563 39.14 351.038 40.1006 350.818 41.1924ZM372.819 35.4033C374.749 35.4033 376.391 36.0846 377.745 37.4473C379.108 38.8099 379.789 40.4561 379.789 42.3857C379.789 44.307 379.108 45.9489 377.745 47.3115C376.391 48.6742 374.749 49.3555 372.819 49.3555C370.898 49.3555 369.256 48.6742 367.894 47.3115C366.531 45.9489 365.85 44.307 365.85 42.3857C365.85 40.4561 366.531 38.8099 367.894 37.4473C369.256 36.0846 370.898 35.4033 372.819 35.4033ZM372.819 36.6221C371.228 36.6221 369.87 37.1849 368.744 38.3105C367.618 39.4362 367.056 40.7946 367.056 42.3857C367.056 43.9769 367.618 45.3353 368.744 46.4609C369.87 47.5781 371.228 48.1367 372.819 48.1367C374.41 48.1367 375.769 47.5781 376.895 46.4609C378.02 45.3353 378.583 43.9769 378.583 42.3857C378.583 40.7946 378.02 39.4362 376.895 38.3105C375.769 37.1849 374.41 36.6221 372.819 36.6221ZM383.979 39.3135V49H382.836V36.5332H383.979V37.333C385.02 36.3005 386.23 35.7842 387.609 35.7842C389.082 35.7842 390.28 36.2454 391.202 37.168C392.125 38.0905 392.599 39.2542 392.624 40.6592V49H391.481V40.7607C391.481 39.7028 391.096 38.8014 390.326 38.0566C389.564 37.3034 388.659 36.9268 387.609 36.9268C386.56 36.9268 385.654 37.2949 384.893 38.0312C384.478 38.446 384.173 38.8734 383.979 39.3135ZM397.842 36.5332V49H396.699V36.5332H397.842ZM397.271 32.1152C397.584 32.1152 397.85 32.2253 398.07 32.4453C398.299 32.6654 398.413 32.932 398.413 33.2451C398.413 33.5667 398.299 33.8376 398.07 34.0576C397.85 34.2777 397.584 34.3877 397.271 34.3877C396.957 34.3877 396.687 34.2777 396.458 34.0576C396.238 33.8376 396.128 33.5667 396.128 33.2451C396.128 32.932 396.238 32.6654 396.458 32.4453C396.687 32.2253 396.957 32.1152 397.271 32.1152ZM401.904 28.6875H403.047V38.2852C403.258 37.9974 403.5 37.7181 403.771 37.4473C405.133 36.0846 406.775 35.4033 408.696 35.4033C410.626 35.4033 412.268 36.0846 413.622 37.4473C414.985 38.8099 415.666 40.4561 415.666 42.3857C415.666 44.307 414.985 45.9489 413.622 47.3115C412.268 48.6742 410.626 49.3555 408.696 49.3555C406.775 49.3555 405.133 48.6742 403.771 47.3115C403.5 47.0407 403.258 46.7614 403.047 46.4736V49H401.904V28.6875ZM403.047 41.1924V43.5791C403.267 44.6624 403.792 45.6188 404.621 46.4482C405.747 47.5739 407.105 48.1367 408.696 48.1367C410.287 48.1367 411.646 47.5781 412.771 46.4609C413.897 45.3353 414.46 43.9769 414.46 42.3857C414.46 40.7946 413.897 39.4362 412.771 38.3105C411.646 37.1849 410.287 36.6221 408.696 36.6221C407.105 36.6221 405.747 37.1849 404.621 38.3105C403.792 39.14 403.267 40.1006 403.047 41.1924ZM420.312 28.6875V49H419.17V28.6875H420.312ZM426.495 46.6641C427.57 47.6458 428.848 48.1367 430.329 48.1367C431.92 48.1367 433.279 47.5739 434.404 46.4482C434.548 46.3044 434.684 46.1562 434.811 46.0039L436.017 46.4355C435.797 46.7402 435.547 47.0322 435.268 47.3115C433.905 48.6742 432.259 49.3555 430.329 49.3555C428.408 49.3555 426.766 48.6742 425.403 47.3115C424.041 45.9489 423.359 44.3027 423.359 42.373C423.359 40.4518 424.041 38.8099 425.403 37.4473C426.766 36.0846 428.408 35.4033 430.329 35.4033C431.979 35.4033 433.423 35.8984 434.658 36.8887C434.861 37.0579 435.064 37.2441 435.268 37.4473C435.344 37.5234 435.416 37.5996 435.483 37.6758L434.62 38.5391L426.495 46.6641ZM433.782 37.7646C432.792 37.0029 431.641 36.6221 430.329 36.6221C428.746 36.6221 427.392 37.1849 426.267 38.3105C425.141 39.4277 424.578 40.7819 424.578 42.373C424.578 43.6849 424.959 44.8359 425.721 45.8262L433.782 37.7646Z" fill="black"/>
</svg>
