<svg width="500" height="500" viewBox="0 0 500 500" fill="none" xmlns="http://www.w3.org/2000/svg">
<rect width="500" height="500" fill="#F2F2F2"/>
<path d="M500 235.225V500H440.969L169.325 287.768L320.155 94.7147L500 235.225Z" fill="#F2F2F2"/>
<path d="M500 235.225V500H440.969L169.325 287.768L320.155 94.7147L500 235.225Z" fill="black" fill-opacity="0.2"/>
<path d="M113.957 390.786C113.957 390.786 119.66 85.1637 227.745 74.09C335.831 63.0825 348.695 139.074 348.695 139.074C348.695 139.074 375.617 148.689 381.121 189.801C386.625 230.913 389.145 394.831 389.145 394.831L144.99 408.823L114.023 390.853L113.957 390.786Z" fill="black"/>
<path fill-rule="evenodd" clip-rule="evenodd" d="M2.99997 500H490.762C469.938 453.357 444.394 421.907 421.57 401.065L421.57 401.064C420.31 399.407 418.785 397.882 417.194 396.489C411.159 391.317 404.727 386.609 398.03 382.166L398.03 382.166C397.765 382.033 397.566 381.901 397.367 381.768L397.366 381.768C378.534 368.838 364.543 363.865 361.626 363.003C361.493 362.87 361.294 362.804 361.228 362.804C280.064 328.986 175.426 334.622 118.4 358.427C82.3179 373.499 38.0185 438.904 2.99997 500Z" fill="#A3A3A3"/>
<path d="M302.543 281.309V356.372C302.543 356.372 289.016 377.922 245.052 381.503C212.361 384.155 201.95 367.379 201.95 367.379L209.841 301.666L289.148 284.226L302.477 281.309H302.543Z" fill="#E2C5B4"/>
<path d="M302.477 276.733C302.278 278.789 301.482 281.176 300.288 283.961C283.512 321.426 224.363 337.075 205.465 338.733L209.974 301.666L302.477 276.733Z" fill="#3E3E3E"/>
<path d="M193.197 130.586C193.197 130.586 153.809 224.68 169.326 276.999C184.842 329.317 232.586 320.299 261.033 309.689C289.48 299.08 302.543 281.309 302.543 281.309C302.543 281.309 329.399 289.995 346.905 264.797C364.41 239.6 352.939 211.285 337.555 204.92C322.171 198.62 304.201 209.893 304.201 209.893L317.993 182.507C317.993 182.507 255.993 45.3778 193.131 130.52L193.197 130.586Z" fill="#E2C5B4"/>
<path d="M309.174 254.055C310.102 254.055 310.964 253.657 311.627 252.928L336.427 225.476C337.621 224.083 337.555 222.028 336.162 220.768C334.836 219.508 332.714 219.64 331.454 221.033L306.654 248.485C305.394 249.878 305.527 251.933 306.919 253.193C307.582 253.79 308.312 254.055 309.108 254.055H309.174Z" fill="black"/>
<path d="M335.897 246.231C337.555 246.231 338.947 245.037 339.146 243.313C339.412 241.523 338.085 239.865 336.295 239.6L318.656 237.345C316.866 237.146 315.208 238.406 314.943 240.196C314.678 241.987 316.004 243.645 317.794 243.91L335.433 246.164C335.433 246.164 335.698 246.164 335.897 246.164V246.231Z" fill="black"/>
<path d="M166.209 164.006C166.209 164.006 192.137 158.834 210.306 159.497L228.475 160.16L235.835 130.918V162.813C235.835 162.813 248.567 165.001 261.298 171.632C274.03 178.263 282.451 186.485 282.451 186.485L294.52 161.884L289.414 192.851L304.135 209.893L326.415 189.072L312.158 145.904C312.158 145.904 278.605 99.0226 276.019 98.4921C273.433 97.9616 225.027 95.2429 225.027 95.2429C225.027 95.2429 183.384 111.555 182.389 112.881C181.395 114.274 166.209 163.94 166.209 163.94V164.006Z" fill="black"/>
<path d="M239.283 382.498C258.381 382.498 282.12 377.326 307.583 359.753C309.108 358.692 309.44 356.637 308.445 355.178C307.384 353.653 305.328 353.321 303.803 354.316C246.379 393.969 200.227 367.777 198.237 366.65C196.646 365.721 194.657 366.252 193.728 367.843C192.8 369.435 193.33 371.424 194.922 372.352C195.187 372.551 212.693 382.564 239.283 382.564V382.498Z" fill="white"/>
<path fill-rule="evenodd" clip-rule="evenodd" d="M65.3029 500H72.042C76.982 466.867 88.5053 438.155 88.6926 437.734C89.3557 436.01 88.56 434.087 86.8359 433.424C85.1118 432.694 83.2551 433.556 82.5257 435.214C82.4969 435.29 82.4469 435.419 82.3773 435.598C80.8561 439.515 69.952 467.589 65.3029 500Z" fill="white"/>
<path d="M302.543 279.85C302.543 288.536 309.572 295.499 318.192 295.499C326.813 295.499 333.842 288.47 333.842 279.85C333.842 271.23 326.813 264.201 318.192 264.201C309.506 264.201 302.543 271.23 302.543 279.85Z" fill="white"/>
</svg>
