<svg width="500" height="500" viewBox="0 0 500 500" fill="none" xmlns="http://www.w3.org/2000/svg">
<rect width="500" height="500" fill="#F2F2F2"/>
<path fill-rule="evenodd" clip-rule="evenodd" d="M500 265.172V500H477.425L202.523 285.223L294.859 167.038L212.073 102.358L222.895 88.5066L305.681 153.187L325.006 128.452L500 265.172Z" fill="#F2F2F2"/>
<path fill-rule="evenodd" clip-rule="evenodd" d="M500 265.172V500H477.425L202.523 285.223L294.859 167.038L212.073 102.358L222.895 88.5066L305.681 153.187L325.006 128.452L500 265.172Z" fill="black" fill-opacity="0.2"/>
<path fill-rule="evenodd" clip-rule="evenodd" d="M23.3664 500C46.0201 395.235 91.7119 373.05 91.7119 373.05C91.7119 373.05 93.1643 372.73 95.8742 372.165C119.415 359.927 154.948 352.38 186.717 347.815C194.222 346.733 201.405 345.845 208.511 344.966L209.615 344.829C236.637 341.844 256.762 341.062 256.762 341.062C256.762 341.062 266.504 340.706 281.509 341.701C304.123 343.194 338.541 347.673 369.332 360.966C422.243 378.596 461.91 447.357 485.27 500H23.3664Z" fill="#636363"/>
<path d="M159.695 158.823C159.695 158.823 116.601 86.1736 152.37 70.6059C188.139 55.0383 230.735 94.917 230.735 94.917C230.735 94.917 310.665 102.026 340.959 144.819C371.252 187.612 296.585 262.536 296.585 262.536L159.624 158.823H159.695Z" fill="black"/>
<path d="M282.505 278.743L286.985 352.316C286.985 352.316 275.038 374.281 232.157 380.466C200.228 385.015 188.495 378.475 188.495 378.475L190.699 340.943L192.904 304.334L269.633 282.44L282.505 278.743Z" fill="#E2C5B4"/>
<path d="M269.634 282.368C269.634 284.359 268.923 286.776 267.927 289.619C253.705 327.365 209.189 338.099 190.7 340.871L192.904 304.263L269.634 282.368Z" fill="#3E3E3E"/>
<path d="M166.166 137.497C166.166 137.497 133.17 232.183 151.588 282.511C170.006 332.839 216.229 321.11 243.536 309.025C270.843 296.941 282.505 278.743 282.505 278.743C282.505 278.743 309.385 285.639 325.03 259.906C340.674 234.173 327.732 207.09 312.301 201.758C296.869 196.427 279.874 208.653 279.874 208.653L291.749 180.93C291.749 180.93 222.7 50.2048 166.166 137.426V137.497Z" fill="#E2C5B4"/>
<path d="M284.851 248.887C285.634 248.887 286.416 248.603 287.127 248.105L318.843 222.23C320.336 221.022 320.621 218.747 319.341 217.254C318.132 215.762 315.856 215.477 314.363 216.757L282.647 242.632C281.154 243.84 280.869 246.115 282.149 247.608C282.86 248.461 283.856 248.887 284.923 248.887H284.851Z" fill="black"/>
<path d="M315.074 246.613C316.781 246.613 318.203 245.404 318.559 243.769C318.914 241.85 317.705 240.002 315.714 239.575L293.527 235.31C291.607 234.884 289.758 236.163 289.332 238.154C288.976 240.073 290.185 241.921 292.176 242.348L314.363 246.613C314.363 246.613 314.79 246.613 315.074 246.613Z" fill="black"/>
<path d="M159.695 158.823C159.695 158.823 166.806 143.539 185.153 142.26C203.499 140.98 215.02 153.278 215.02 153.278C215.02 153.278 208.833 184.698 234.86 199.554C260.816 214.482 279.874 208.653 279.874 208.653L297.58 201.118L309.243 173.822L253.349 120.579L183.304 88.946L150.663 122.427L159.624 158.752L159.695 158.823Z" fill="black"/>
<path d="M208.62 386.153C256.833 386.153 293.527 352.814 295.305 351.108C296.727 349.757 296.798 347.553 295.518 346.061C294.167 344.639 291.963 344.568 290.469 345.847C289.972 346.274 241.9 389.849 186.077 376.272C184.157 375.774 182.237 376.983 181.811 378.902C181.313 380.821 182.522 382.741 184.442 383.167C192.762 385.229 200.869 386.082 208.691 386.082L208.62 386.153Z" fill="white"/>
</svg>
