<?xml version="1.0" standalone="no"?>
<!DOCTYPE svg PUBLIC "-//W3C//DTD SVG 20010904//EN"
 "http://www.w3.org/TR/2001/REC-SVG-20010904/DTD/svg10.dtd">
<svg version="1.0" xmlns="http://www.w3.org/2000/svg"
 width="348.000000pt" height="348.000000pt" viewBox="0 0 348.000000 348.000000"
 preserveAspectRatio="xMidYMid meet">
<metadata>
Created by potrace 1.14, written by Peter Selinger 2001-2017
</metadata>
<g transform="translate(0.000000,348.000000) scale(0.100000,-0.100000)"
fill="#000000" stroke="none">
<path d="M1589 3476 c-2 -2 -29 -6 -59 -9 -491 -54 -957 -342 -1239 -766 -188
-284 -279 -577 -286 -921 -3 -185 6 -287 41 -439 146 -632 667 -1151 1299
-1296 72 -16 86 -19 195 -34 68 -10 410 -8 426 1 5 4 34 9 64 13 30 4 58 9 61
11 4 2 23 6 43 10 67 10 250 75 354 124 274 131 514 335 681 580 168 246 252
465 300 785 9 62 8 415 -1 431 -3 5 -9 31 -12 58 -18 134 -73 309 -146 463
-46 98 -149 266 -201 329 -113 134 -204 223 -324 315 -61 46 -190 129 -201
129 -3 0 -18 8 -32 18 -15 10 -56 31 -92 46 -36 15 -74 32 -85 37 -49 23 -220
71 -320 90 -76 15 -164 22 -286 25 -97 2 -178 2 -180 0z"/>
</g>
</svg>
